# xmcd CD database file
#
# Track frame offsets:
#	150
#	16730
#	30152
#
# Disc length: 558 seconds
#
# Revision: 0
# Processed by: cddbd v1.5.1PL2 Copyright (c) Steve Scherf et al.
# Submitted via: CDex 1.50
#
DISCID=0f022c03
DTITLE=ジェット機 - crayon
DYEAR=2006
DGENRE=Japanese Pop
TTITLE0=crayon
TTITLE1=LOST
TTITLE2=2003.2.21
EXTD=YEAR: 2006
EXTT0=
EXTT1=
EXTT2=
PLAYORDER=
